<svg id="Art_2" data-name="Art 2" xmlns="http://www.w3.org/2000/svg" xmlns:xlink="http://www.w3.org/1999/xlink" viewBox="0 0 1080 1080"><defs><style>.cls-1,.cls-2{fill:#fff;}.cls-2,.cls-3{font-size:60px;font-family:FodaFreeFont, Foda Free Font;}.cls-3{fill:none;}.cls-3,.cls-4{stroke:#fff;stroke-miterlimit:10;}.cls-4{fill:url(#linear-gradient);}</style><linearGradient id="linear-gradient" x1="306" y1="540" x2="774" y2="540" gradientUnits="userSpaceOnUse"><stop offset="0" stop-color="#8f35ea"/><stop offset="1" stop-color="#6945ea"/></linearGradient></defs><g id="Grouped"><path class="cls-1" d="M515.59,357.05c-8.26-15.17-6.36-27.73,5.93-38.38,9.25-8,24.67-8.19,35.29-.4,12.75,9.36,14.46,20.22,6.11,39.32,8.34,2.82,17.09,4.77,24.92,8.6,29.18,14.27,52.51,34.73,59.4,67.84,3.43,16.45,2.75,33.85,3,50.84.43,28-.08,56,.17,84,.15,16-4.41,29.8-16.59,40.56-2.85,2.52-3.39,4.92-1.74,8.42,11.9,25.23-13.24,52.73-35.57,52.57-37.27-.26-74.55-.48-111.81.36-24.89.56-46.79-26.3-37-52.71,1-2.56,1.16-4.19-1.42-6.23-10.7-8.47-15.95-20.26-17.17-33.39-1.06-11.44-.49-23.05-.44-34.58.1-29.51,0-59,.55-88.53.72-42,23-69.91,59.22-88C497,363,506.37,360.47,515.59,357.05Zm-3,252.65c17.31,0,34.28-.05,51.26,0,3.85,0,3.57-2.5,3.55-5,0-11.16-.06-22.32-.16-33.48-.22-23.26-.35-46.53-.78-69.78-.21-11-6.78-18-16.33-21.84-9.79-4-19.13-3.69-28.12,3.72-8.46,7-11.4,15.22-11.18,25.78.68,31.78.91,63.56,1.33,95.34C512.16,606.14,512.4,607.79,512.56,609.7Zm-20.47-.85c.19-2.77.48-5,.49-7.23.08-32.49.33-65-.05-97.47,0-5-2.38-10.26-4.86-14.75-5.19-9.37-13.15-12.83-22.11-10.69-8.73,2.09-17.13,11.74-17.22,20.85-.24,24.74-.61,49.5.05,74.23.4,15.19,10,25.58,21.83,33.94a6,6,0,0,0,3.14,1.07C479.39,608.9,485.41,608.85,492.09,608.85Zm95.27.09c23.34,1.53,29-1.28,39-20.54a36.8,36.8,0,0,0,3.81-15.09c.59-15.86.51-31.75.55-47.63,0-8.87.42-17.83-.55-26.61-1.05-9.51-6-17.27-15.34-20.82-7-2.65-13.56-.55-18.67,4.73-5.38,5.56-8.66,12.09-8.64,20.27.09,31.75-.11,63.51-.19,95.26C587.35,601.89,587.36,605.26,587.36,608.94Zm26.57,19.13H466.85c-.64,12.14,9.31,23,20.38,23q52.75-.09,105.53-.25C605.14,650.8,614.49,640.76,613.93,628.07Zm-103.75-186h58.7a71.9,71.9,0,0,0-12.19-40.32c-5.62-8.41-11.1-16.91-16.8-25.62C522.92,394.73,509.82,415,510.18,442.12Zm5.63-64.4c-28.28,3.56-68.2,43-66,64.36h42.24C492.6,418,499.11,396.21,515.81,377.72Zm48.67.89c15.64,19.07,23,40.05,23.29,63.54h42C630.37,420.46,592.7,383.26,564.48,378.61ZM511.24,488.42c7.58-11,16.58-18,29.3-18.46,13-.47,20.83,7.75,28,17.31.43-8.58.87-17.16,1.31-25.69H511.24Zm76.35-4c6.57-8.18,13.37-13,22.3-14.1,10.14-1.2,15.23,6.47,21.91,14.33.51-8.95.91-15.94,1.28-22.42H587.59Zm-93.45-22.68H448.66v22.65A31.74,31.74,0,0,1,471,468.7c9.08-1.54,15.31,7,22.14,14.68C493.51,475.18,493.82,468.5,494.14,461.71ZM539.4,331c-5.83.09-11.28,5.16-11.28,10.49,0,6.08,6.38,13.44,11.65,13.43,4.3,0,11.43-7.81,11.4-12.48C551.12,336.49,545.4,330.92,539.4,331Z"/><path class="cls-1" d="M718.44,501.85v.08c7.92,0,15.84,0,23.75,0,4.41,0,7.9-4.13,7.91-9.08,0-5.16-2.19-7.4-7.72-7.3-15.64.28-31.28.76-46.93,1.05-5.26.1-7.49,2.82-7.42,7.81s2.62,7.55,7.78,7.49C703.35,501.79,710.89,501.85,718.44,501.85ZM360.36,502v.18H383c4.51,0,9-3.51,9.37-7.28.36-4.3-3.57-8.31-8.66-8.42q-22.62-.51-45.23-.76c-4.84-.06-8.58,3.42-8.56,7.66a8.49,8.49,0,0,0,8.41,8.61C345.66,502,353,502,360.36,502ZM343,549.21c-.07,8.21,3.69,11,10.91,8.37,11.68-4.27,23.35-8.59,35-12.88,5.64-2.07,7.84-5.7,6.1-10.17s-5.6-5.85-11.25-4c-11.6,3.89-23.2,7.8-34.91,11.38C344.79,543.2,342.68,545.26,343,549.21Zm391,.17c-.5-5.78-2-7.15-8.88-8.93-10.53-2.75-21.05-5.57-31.45-8.78-4.2-1.3-6.48.05-8.15,3.57-2.7,5.72-.57,10.46,6.08,12.74q17,5.84,34.25,11.19a4.69,4.69,0,0,0,4.15-1.34C731.66,555.23,732.7,552.22,734,549.38ZM354.4,427.43c-1.55,2.43-3.78,5.07-5,8.11-1.66,4.07.61,7.07,4.31,8.54,11.35,4.51,22.76,8.92,34.28,13,1.66.59,4.54-.23,6-1.44,5.34-4.44,4-10.5-3.07-13.59-10.68-4.65-21.53-8.92-32.32-13.33C357.69,428.36,356.76,428.16,354.4,427.43ZM683.67,447c.1,7.21,4.38,10.74,9,9,11.64-4.39,23.22-9,34.77-13.59,4.33-1.74,5.23-5.14,3.65-9.3s-4.65-6.49-8.83-5c-11.19,4-22.3,8.27-33.19,13C686.44,442.23,684.8,445.66,683.67,447ZM671.92,569.51c-2,1.84-4.77,3.26-5.83,5.48-2.13,4.5,0,8.56,3.46,11.6,7.49,6.61,15,13.21,22.94,19.3,1.61,1.24,5.51,1.13,7.43,0,6-3.44,6.21-9.41,1-13.88q-11.56-9.93-23.29-19.67C676.28,571.23,674.42,570.72,671.92,569.51ZM420.42,407.22c-2.4-3-3.8-5.43-5.84-7.1q-12.25-10-24.91-19.59c-1.43-1.07-4.07-1.9-5.53-1.31-5.58,2.26-6.82,10.67-2.12,14.48,8.35,6.77,16.9,13.31,25.55,19.69,1.56,1.16,4.72,2.21,5.89,1.43C416.05,413.1,417.84,410.18,420.42,407.22Zm-7.33,169.19c-2-2.35-3.45-5.23-5.67-6.13-1.9-.77-5.28,0-7,1.34-7.32,5.58-14.29,11.63-21.36,17.54a16.68,16.68,0,0,0-3.57,3.6c-2.72,4.35-1.53,8.62,1.84,11.73,1.39,1.28,5.45,1.78,6.74.72,8.59-7,16.84-14.51,25-22.06C410.7,581.61,411.49,579.14,413.09,576.41ZM659.6,405.64c2.42,3.06,4.12,6.28,6.78,8.07,1.08.72,4.5-1.35,6.43-2.74,3.66-2.64,7.05-5.66,10.49-8.6,4.58-3.92,9.25-7.76,13.61-11.92,4-3.78,1.24-7.29-1.27-10.4-2-2.52-4.54-3.06-7.35-.7-8.06,6.79-16.26,13.42-24.27,20.27C662.45,401,661.49,403,659.6,405.64ZM455.67,367.93c-1.58-3.68-2.3-6-3.53-8.11-3.37-5.64-7-11.11-10.42-16.74-2.24-3.72-4.89-5.75-9.21-3.31s-5.93,6.47-3.61,10.77c3.76,6.95,7.92,13.67,11.85,20.52,1.72,3,4,5.78,7.54,3.75C451.21,373.14,453.38,370.14,455.67,367.93Zm168.05-.59c2,2.15,4,5.18,6.76,6.68,1.15.62,4.78-1.52,6-3.29C641.36,364,645.79,357,650.17,350c2.33-3.74,1.78-7.34-2-9.85s-7.33-1.24-9.77,2.29c-4.29,6.2-8.38,12.54-12.42,18.91C625.1,362.68,624.79,364.4,623.72,367.34Z"/><path class="cls-1" d="M360.36,502c-7.35,0-14.7.05-22.05,0a8.49,8.49,0,0,1-8.41-8.61c0-4.24,3.72-7.72,8.56-7.66q22.62.29,45.23.76c5.09.11,9,4.12,8.66,8.42-.33,3.77-4.86,7.29-9.37,7.28H360.36Z"/><path class="cls-1" d="M343,549.21c-.33-4,1.78-6,5.87-7.26,11.71-3.58,23.31-7.49,34.91-11.38,5.65-1.89,9.47-.64,11.25,4s-.46,8.1-6.1,10.17c-11.67,4.29-23.34,8.61-35,12.88C346.7,560.22,342.94,557.42,343,549.21Z"/><path class="cls-1" d="M354.4,427.43c2.36.73,3.29.93,4.16,1.29,10.79,4.41,21.64,8.68,32.32,13.33,7.1,3.09,8.41,9.15,3.07,13.59-1.45,1.21-4.33,2-6,1.44-11.52-4.08-22.93-8.49-34.28-13-3.7-1.47-6-4.47-4.31-8.54C350.62,432.5,352.85,429.86,354.4,427.43Z"/><path class="cls-1" d="M420.42,407.22c-2.58,3-4.37,5.88-7,7.6-1.17.78-4.33-.27-5.89-1.43-8.65-6.38-17.2-12.92-25.55-19.69-4.7-3.81-3.46-12.22,2.12-14.48,1.46-.59,4.1.24,5.53,1.31q12.65,9.54,24.91,19.59C416.62,401.79,418,404.25,420.42,407.22Z"/><path class="cls-1" d="M455.67,367.93c-2.29,2.21-4.46,5.21-7.38,6.88-3.57,2-5.82-.75-7.54-3.75-3.93-6.85-8.09-13.57-11.85-20.52-2.32-4.3-.78-8.29,3.61-10.77s7-.41,9.21,3.31c3.38,5.63,7,11.1,10.42,16.74C453.37,361.89,454.09,364.25,455.67,367.93Z"/></g><text class="cls-2" transform="translate(359.85 734.12)">ثيداحلا ةاكشم</text><text class="cls-3" transform="translate(359.85 734.12)">ثيداحلا ةاكشم</text><path d="M631.72,258.37A171.77,171.77,0,0,1,803.49,430.14V649.86A171.77,171.77,0,0,1,631.72,821.63H448.28A171.77,171.77,0,0,1,276.51,649.86V430.14A171.77,171.77,0,0,1,448.28,258.37H631.72m0-1H448.28A172.77,172.77,0,0,0,275.51,430.14V649.86A172.77,172.77,0,0,0,448.28,822.63H631.72A172.77,172.77,0,0,0,804.49,649.86V430.14A172.77,172.77,0,0,0,631.72,257.37Z"/><path class="cls-4" d="M621.15,281.64H458.85c-84.42,0-152.85,70.7-152.85,157.93V640.43c0,87.22,68.43,157.93,152.85,157.93h162.3c84.42,0,152.85-70.71,152.85-157.93V439.57C774,352.34,705.57,281.64,621.15,281.64Z"/><g id="Grouped-2" data-name="Grouped"><path class="cls-1" d="M515.59,357.05c-8.26-15.17-6.36-27.73,5.93-38.38,9.25-8,24.67-8.19,35.29-.4,12.75,9.36,14.46,20.22,6.11,39.32,8.34,2.82,17.09,4.77,24.92,8.6,29.18,14.27,52.51,34.73,59.4,67.84,3.43,16.45,2.75,33.85,3,50.84.43,28-.08,56,.17,84,.15,16-4.41,29.8-16.59,40.56-2.85,2.52-3.39,4.92-1.74,8.42,11.9,25.23-13.24,52.73-35.57,52.57-37.27-.26-74.55-.48-111.81.36-24.89.56-46.79-26.3-37-52.71,1-2.56,1.16-4.19-1.42-6.23-10.7-8.47-15.95-20.26-17.17-33.39-1.06-11.44-.49-23.05-.44-34.58.1-29.51,0-59,.55-88.53.72-42,23-69.91,59.22-88C497,363,506.37,360.47,515.59,357.05Zm-3,252.65c17.31,0,34.28-.05,51.26,0,3.85,0,3.57-2.5,3.55-5,0-11.16-.06-22.32-.16-33.48-.22-23.26-.35-46.53-.78-69.78-.21-11-6.78-18-16.33-21.84-9.79-4-19.13-3.69-28.12,3.72-8.46,7-11.4,15.22-11.18,25.78.68,31.78.91,63.56,1.33,95.34C512.16,606.14,512.4,607.79,512.56,609.7Zm-20.47-.85c.19-2.77.48-5,.49-7.23.08-32.49.33-65-.05-97.47,0-5-2.38-10.26-4.86-14.75-5.19-9.37-13.15-12.83-22.11-10.69-8.73,2.09-17.13,11.74-17.22,20.85-.24,24.74-.61,49.5.05,74.23.4,15.19,10,25.58,21.83,33.94a6,6,0,0,0,3.14,1.07C479.39,608.9,485.41,608.85,492.09,608.85Zm95.27.09c23.34,1.53,29-1.28,39-20.54a36.8,36.8,0,0,0,3.81-15.09c.59-15.86.51-31.75.55-47.63,0-8.87.42-17.83-.55-26.61-1.05-9.51-6-17.27-15.34-20.82-7-2.65-13.56-.55-18.67,4.73-5.38,5.56-8.66,12.09-8.64,20.27.09,31.75-.11,63.51-.19,95.26C587.35,601.89,587.36,605.26,587.36,608.94Zm26.57,19.13H466.85c-.64,12.14,9.31,23,20.38,23q52.75-.09,105.53-.25C605.14,650.8,614.49,640.76,613.93,628.07Zm-103.75-186h58.7a71.9,71.9,0,0,0-12.19-40.32c-5.62-8.41-11.1-16.91-16.8-25.62C522.92,394.73,509.82,415,510.18,442.12Zm5.63-64.4c-28.28,3.56-68.2,43-66,64.36h42.24C492.6,418,499.11,396.21,515.81,377.72Zm48.67.89c15.64,19.07,23,40.05,23.29,63.54h42C630.37,420.46,592.7,383.26,564.48,378.61ZM511.24,488.42c7.58-11,16.58-18,29.3-18.46,13-.47,20.83,7.75,28,17.31.43-8.58.87-17.16,1.31-25.69H511.24Zm76.35-4c6.57-8.18,13.37-13,22.3-14.1,10.14-1.2,15.23,6.47,21.91,14.33.51-8.95.91-15.94,1.28-22.42H587.59Zm-93.45-22.68H448.66v22.65A31.74,31.74,0,0,1,471,468.7c9.08-1.54,15.31,7,22.14,14.68C493.51,475.18,493.82,468.5,494.14,461.71ZM539.4,331c-5.83.09-11.28,5.16-11.28,10.49,0,6.08,6.38,13.44,11.65,13.43,4.3,0,11.43-7.81,11.4-12.48C551.12,336.49,545.4,330.92,539.4,331Z"/><path class="cls-1" d="M718.44,501.85v.08c7.92,0,15.84,0,23.75,0,4.41,0,7.9-4.13,7.91-9.08,0-5.16-2.19-7.4-7.72-7.3-15.64.28-31.28.76-46.93,1.05-5.26.1-7.49,2.82-7.42,7.81s2.62,7.55,7.78,7.49C703.35,501.79,710.89,501.85,718.44,501.85ZM360.36,502v.18H383c4.51,0,9-3.51,9.37-7.28.36-4.3-3.57-8.31-8.66-8.42q-22.62-.51-45.23-.76c-4.84-.06-8.58,3.42-8.56,7.66a8.49,8.49,0,0,0,8.41,8.61C345.66,502,353,502,360.36,502ZM343,549.21c-.07,8.21,3.69,11,10.91,8.37,11.68-4.27,23.35-8.59,35-12.88,5.64-2.07,7.84-5.7,6.1-10.17s-5.6-5.85-11.25-4c-11.6,3.89-23.2,7.81-34.91,11.38C344.79,543.2,342.68,545.26,343,549.21Zm391,.17c-.5-5.78-2-7.15-8.88-8.93-10.53-2.75-21.05-5.57-31.45-8.78-4.2-1.3-6.48.05-8.15,3.57-2.7,5.72-.57,10.46,6.08,12.74q17,5.84,34.25,11.19a4.69,4.69,0,0,0,4.15-1.34C731.66,555.23,732.7,552.22,734,549.38ZM354.4,427.43c-1.55,2.43-3.78,5.07-5,8.11-1.66,4.07.61,7.07,4.31,8.54,11.35,4.51,22.76,8.92,34.28,13,1.66.59,4.54-.23,6-1.44,5.34-4.44,4-10.5-3.07-13.59-10.68-4.65-21.53-8.92-32.32-13.33C357.69,428.36,356.76,428.16,354.4,427.43ZM683.67,447c.1,7.21,4.38,10.74,9,9,11.64-4.39,23.22-9,34.77-13.59,4.33-1.74,5.23-5.14,3.65-9.3s-4.65-6.49-8.83-5c-11.19,4-22.3,8.27-33.19,13C686.44,442.23,684.8,445.66,683.67,447ZM671.92,569.51c-2,1.84-4.77,3.26-5.83,5.48-2.13,4.5,0,8.56,3.46,11.6,7.49,6.61,15,13.22,22.94,19.3,1.61,1.24,5.51,1.13,7.43,0,6-3.44,6.21-9.41,1-13.88q-11.56-9.93-23.29-19.67C676.28,571.23,674.42,570.72,671.92,569.51ZM420.42,407.22c-2.4-3-3.8-5.43-5.84-7.1q-12.25-10-24.91-19.59c-1.43-1.07-4.07-1.9-5.53-1.31-5.58,2.26-6.82,10.67-2.12,14.48,8.35,6.77,16.9,13.31,25.55,19.69,1.56,1.16,4.72,2.21,5.89,1.43C416.05,413.1,417.84,410.18,420.42,407.22Zm-7.33,169.19c-2-2.35-3.45-5.23-5.67-6.13-1.9-.77-5.28,0-7,1.34-7.32,5.58-14.29,11.63-21.36,17.54a16.68,16.68,0,0,0-3.57,3.6c-2.72,4.35-1.53,8.62,1.84,11.73,1.39,1.28,5.45,1.78,6.74.72,8.59-7,16.84-14.51,25-22.06C410.7,581.61,411.49,579.14,413.09,576.41ZM659.6,405.64c2.42,3.06,4.12,6.28,6.78,8.07,1.08.72,4.5-1.35,6.43-2.74,3.66-2.64,7.05-5.66,10.49-8.6,4.58-3.92,9.25-7.76,13.61-11.92,4-3.78,1.24-7.29-1.27-10.4-2-2.52-4.54-3.06-7.35-.7-8.06,6.79-16.26,13.42-24.27,20.27C662.45,401,661.49,403,659.6,405.64ZM455.67,367.93c-1.58-3.68-2.3-6-3.53-8.11-3.37-5.64-7-11.11-10.42-16.74-2.24-3.72-4.89-5.75-9.21-3.31s-5.93,6.47-3.61,10.77c3.76,6.95,7.92,13.67,11.85,20.52,1.72,3,4,5.78,7.54,3.75C451.21,373.14,453.38,370.14,455.67,367.93Zm168.05-.59c2,2.15,4,5.18,6.76,6.68,1.15.62,4.78-1.52,6-3.29C641.36,364,645.79,357,650.17,350c2.33-3.74,1.78-7.34-2-9.85s-7.33-1.24-9.77,2.29c-4.29,6.2-8.38,12.54-12.42,18.91C625.1,362.68,624.79,364.4,623.72,367.34Z"/><path class="cls-1" d="M360.36,502c-7.35,0-14.7.05-22.05,0a8.49,8.49,0,0,1-8.41-8.61c0-4.24,3.72-7.72,8.56-7.66q22.62.29,45.23.76c5.09.11,9,4.12,8.66,8.42-.33,3.77-4.86,7.29-9.37,7.28H360.36Z"/><path class="cls-1" d="M343,549.21c-.33-4,1.78-6,5.87-7.26,11.71-3.57,23.31-7.49,34.91-11.38,5.65-1.89,9.47-.64,11.25,4s-.46,8.1-6.1,10.17c-11.67,4.29-23.34,8.61-35,12.88C346.7,560.22,342.94,557.42,343,549.21Z"/><path class="cls-1" d="M354.4,427.43c2.36.73,3.29.93,4.16,1.29,10.79,4.41,21.64,8.68,32.32,13.33,7.1,3.09,8.41,9.15,3.07,13.59-1.45,1.21-4.33,2-6,1.44-11.52-4.08-22.93-8.49-34.28-13-3.7-1.47-6-4.47-4.31-8.54C350.62,432.5,352.85,429.86,354.4,427.43Z"/><path class="cls-1" d="M420.42,407.22c-2.58,3-4.37,5.88-7,7.6-1.17.78-4.33-.27-5.89-1.43-8.65-6.38-17.2-12.92-25.55-19.69-4.7-3.81-3.46-12.22,2.12-14.48,1.46-.59,4.1.24,5.53,1.31q12.65,9.54,24.91,19.59C416.62,401.79,418,404.25,420.42,407.22Z"/><path class="cls-1" d="M455.67,367.93c-2.29,2.21-4.46,5.21-7.38,6.88-3.57,2-5.82-.75-7.54-3.75-3.93-6.85-8.09-13.57-11.85-20.52-2.32-4.3-.78-8.29,3.61-10.77s7-.41,9.21,3.31c3.38,5.63,7,11.1,10.42,16.74C453.37,361.89,454.09,364.25,455.67,367.93Z"/></g><text class="cls-2" transform="translate(359.85 734.12)">ثيداحلا ةاكشم</text><text class="cls-3" transform="translate(359.85 734.12)">ثيداحلا ةاكشم</text></svg>