<svg width="100" height="100" viewBox="0 0 100 100" xmlns="http://www.w3.org/2000/svg">
  <defs>
    <pattern id="arabicPattern" x="0" y="0" width="50" height="50" patternUnits="userSpaceOnUse">
      <path d="M25,0 C25,13.8 13.8,25 0,25 C13.8,25 25,36.2 25,50 C25,36.2 36.2,25 50,25 C36.2,25 25,13.8 25,0" fill="none" stroke="#E5B97F" stroke-width="0.5" opacity="0.3"/>
      <path d="M25,0 C25,13.8 36.2,25 50,25 C36.2,25 25,36.2 25,50 C25,36.2 13.8,25 0,25 C13.8,25 25,13.8 25,0" fill="none" stroke="#E5B97F" stroke-width="0.5" opacity="0.3"/>
      <circle cx="25" cy="25" r="2" fill="#E5B97F" opacity="0.3"/>
    </pattern>
  </defs>
  <rect width="100" height="100" fill="url(#arabicPattern)"/>
</svg>